<svg width="27" height="40" viewBox="0 0 27 40" fill="none" xmlns="http://www.w3.org/2000/svg">
<g id="figma_logo" clip-path="url(#clip0_294_1564)">
<path id="Vector" d="M13.333 20C13.333 18.2319 14.0354 16.5362 15.2856 15.2859C16.5359 14.0357 18.2316 13.3333 19.9997 13.3333C21.7678 13.3333 23.4635 14.0357 24.7137 15.2859C25.964 16.5362 26.6663 18.2319 26.6663 20C26.6663 21.7681 25.964 23.4638 24.7137 24.714C23.4635 25.9643 21.7678 26.6667 19.9997 26.6667C18.2316 26.6667 16.5359 25.9643 15.2856 24.714C14.0354 23.4638 13.333 21.7681 13.333 20Z" fill="#1ABCFE"/>
<path id="Vector_2" d="M0 33.3333C0 31.5652 0.702379 29.8695 1.95262 28.6193C3.20286 27.3691 4.89856 26.6667 6.66667 26.6667H13.3333V33.3333C13.3333 35.1014 12.631 36.7971 11.3807 38.0474C10.1305 39.2976 8.43478 40 6.66667 40C4.89856 40 3.20286 39.2976 1.95262 38.0474C0.702379 36.7971 0 35.1014 0 33.3333H0Z" fill="#0ACF83"/>
<path id="Vector_3" d="M13.333 0V13.3333H19.9997C21.7678 13.3333 23.4635 12.631 24.7137 11.3807C25.964 10.1305 26.6663 8.43478 26.6663 6.66667C26.6663 4.89856 25.964 3.20286 24.7137 1.95262C23.4635 0.702379 21.7678 0 19.9997 0L13.333 0Z" fill="#FF7262"/>
<path id="Vector_4" d="M0 6.66667C0 8.43478 0.702379 10.1305 1.95262 11.3807C3.20286 12.631 4.89856 13.3333 6.66667 13.3333H13.3333V0H6.66667C4.89856 0 3.20286 0.702379 1.95262 1.95262C0.702379 3.20286 0 4.89856 0 6.66667H0Z" fill="#E73D1C"/>
<path id="Vector_5" d="M0 20C0 21.7681 0.702379 23.4638 1.95262 24.714C3.20286 25.9643 4.89856 26.6667 6.66667 26.6667H13.3333V13.3333H6.66667C4.89856 13.3333 3.20286 14.0357 1.95262 15.2859C0.702379 16.5362 0 18.2319 0 20H0Z" fill="#A259FF"/>
</g>
<defs>
<clipPath id="clip0_294_1564">
<rect width="26.6667" height="40" fill="white"/>
</clipPath>
</defs>
</svg>
